HIERARCHY
ROOT boneTorso
{
	OFFSET 0.000000 -0.000000 0.635062
	CHANNELS 6 Xposition Yposition Zposition Xrotation Yrotation Zrotation
	JOINT boneHead
	{
		OFFSET 0.000000 0.000000 0.562500
		CHANNELS 3 Xrotation Yrotation Zrotation
		End Site
		{
			OFFSET 0.000000 0.000000 0.416667
		}
	}
	JOINT boneLegRU
	{
		OFFSET 0.000000 0.125000 0.000000
		CHANNELS 3 Xrotation Yrotation Zrotation
		JOINT boneLegRD
		{
			OFFSET 0.000000 0.000000 -0.312500
			CHANNELS 3 Xrotation Yrotation Zrotation
			JOINT boneFootR
			{
				OFFSET 0.000000 0.000000 -0.312500
				CHANNELS 3 Xrotation Yrotation Zrotation
				End Site
				{
					OFFSET 0.000000 0.000000 -0.062500
				}
			}
		}
	}
	JOINT boneLegLU
	{
		OFFSET 0.000000 -0.125000 0.000000
		CHANNELS 3 Xrotation Yrotation Zrotation
		JOINT boneLegLD
		{
			OFFSET 0.000000 0.000000 -0.312500
			CHANNELS 3 Xrotation Yrotation Zrotation
			JOINT boneFootL
			{
				OFFSET 0.000000 0.000000 -0.312500
				CHANNELS 3 Xrotation Yrotation Zrotation
				End Site
				{
					OFFSET 0.000000 0.000000 -0.062500
				}
			}
		}
	}
	JOINT boneArmRU
	{
		OFFSET 0.000000 0.350000 0.562500
		CHANNELS 3 Xrotation Yrotation Zrotation
		JOINT boneArmRD
		{
			OFFSET 0.000000 0.000000 -0.312500
			CHANNELS 3 Xrotation Yrotation Zrotation
			End Site
			{
				OFFSET 0.000000 0.000000 -0.250000
			}
		}
	}
	JOINT boneArmLU
	{
		OFFSET 0.000000 -0.350000 0.562500
		CHANNELS 3 Xrotation Yrotation Zrotation
		JOINT boneArmLD
		{
			OFFSET 0.000000 0.000000 -0.312500
			CHANNELS 3 Xrotation Yrotation Zrotation
			End Site
			{
				OFFSET 0.000000 0.000000 -0.250000
			}
		}
	}
}
MOTION
Frames: 20
Frame Time: 0.016667
0.000000 -0.000000 0.643355 -0.000000 0.000000 -0.000000 -0.000000 0.000000 -0.000000 -0.000010 -37.224811 -0.000015 -0.000003 21.140504 0.000008 -0.000005 -15.037696 -0.000001 0.000001 18.886945 0.000006 -0.000004 25.673317 0.000009 -0.000004 -14.308032 -0.000002 0.000004 32.930043 -0.000001 -0.000000 -38.735885 -0.000000 -0.000004 -25.026904 -0.000003 -0.000000 -108.822706 -0.000000 
0.000000 -0.000000 0.638024 -0.000000 0.000000 -0.000000 -0.000000 0.000000 -0.000000 -0.000010 -37.223397 -0.000015 -0.000003 21.656483 0.000008 -0.000005 -15.037696 -0.000001 0.000001 18.876645 0.000006 -0.000004 26.490122 0.000009 -0.000004 -14.308037 -0.000002 0.000004 32.930043 -0.000001 -0.000000 -38.735885 -0.000000 -0.000004 -25.026904 -0.000003 -0.000000 -108.822706 -0.000000 
0.000000 -0.000000 0.621979 -0.000000 0.000000 -0.000000 -0.000000 0.000000 -0.000000 -0.000010 -37.212298 -0.000015 -0.000003 23.212048 0.000008 -0.000005 -15.037696 -0.000001 0.000001 18.815404 0.000006 -0.000005 29.010764 0.000010 -0.000004 -14.308032 -0.000002 0.000004 32.930043 -0.000001 -0.000000 -38.735885 -0.000000 -0.000004 -25.026904 -0.000003 -0.000000 -108.822706 -0.000000 
0.000000 -0.000000 0.595891 -0.000000 0.000000 -0.000000 -0.000000 0.000000 -0.000000 -0.000010 -37.178140 -0.000015 -0.000004 25.748673 0.000008 -0.000005 -15.037700 -0.000001 0.000001 18.645190 0.000006 -0.000006 33.265207 0.000012 -0.000004 -14.308036 -0.000002 0.000004 32.930043 -0.000001 -0.000000 -38.735885 -0.000000 -0.000004 -25.026904 -0.000003 -0.000000 -108.822706 -0.000000 
0.000000 -0.000000 0.561770 -0.000000 0.000000 -0.000000 -0.000000 0.000000 -0.000000 -0.000010 -37.104180 -0.000015 -0.000004 29.076628 0.000009 -0.000005 -15.037696 -0.000001 0.000001 18.294332 0.000006 -0.000008 39.109369 0.000015 -0.000004 -14.308037 -0.000002 0.000004 32.930043 -0.000001 -0.000000 -38.735885 -0.000000 -0.000004 -25.026904 -0.000003 -0.000000 -108.822706 -0.000000 
0.000000 -0.000000 0.523116 -0.000000 0.000000 -0.000000 -0.000000 0.000000 -0.000000 -0.000010 -36.972784 -0.000015 -0.000004 32.854071 0.000009 -0.000005 -15.037698 -0.000001 0.000001 17.688479 0.000006 -0.000011 46.151827 0.000020 -0.000004 -14.308038 -0.000002 0.000004 32.930043 -0.000001 -0.000000 -38.735885 -0.000000 -0.000004 -25.026904 -0.000003 -0.000000 -108.822706 -0.000000 
0.000000 -0.000000 0.484462 -0.000000 0.000000 -0.000000 -0.000000 0.000000 -0.000000 -0.000010 -36.769688 -0.000015 -0.000005 36.631513 0.000009 -0.000005 -15.037698 -0.000001 0.000001 16.768282 0.000006 -0.000016 53.773868 0.000026 -0.000004 -14.308033 -0.000002 0.000004 32.930043 -0.000001 -0.000000 -38.735885 -0.000000 -0.000004 -25.026904 -0.000003 -0.000000 -108.822706 -0.000000 
0.000000 -0.000000 0.450340 -0.000000 0.000000 -0.000000 -0.000000 0.000000 -0.000000 -0.000009 -36.487817 -0.000015 -0.000005 39.959462 0.000010 -0.000005 -15.037698 -0.000001 0.000000 15.504861 0.000006 -0.000023 61.278435 0.000035 -0.000004 -14.308032 -0.000002 0.000004 32.930043 -0.000001 -0.000000 -38.735885 -0.000000 -0.000004 -25.026904 -0.000003 -0.000000 -108.822706 -0.000000 
0.000000 -0.000000 0.424252 -0.000000 0.000000 -0.000000 -0.000000 0.000000 -0.000000 -0.000009 -36.128323 -0.000015 -0.000006 42.496081 0.000010 -0.000005 -15.037696 -0.000001 0.000000 13.903156 0.000006 -0.000035 68.083770 0.000048 -0.000004 -14.308033 -0.000002 0.000004 32.930043 -0.000001 -0.000000 -38.735885 -0.000000 -0.000004 -25.026904 -0.000003 -0.000000 -108.822706 -0.000000 
0.000000 -0.000000 0.408208 -0.000000 0.000000 -0.000000 -0.000000 0.000000 -0.000000 -0.000009 -35.698503 -0.000014 -0.000006 44.051647 0.000010 -0.000005 -15.037698 -0.000001 -0.000000 11.992954 0.000006 -0.000053 73.833006 0.000067 -0.000004 -14.308035 -0.000002 0.000004 32.930043 -0.000001 -0.000000 -38.735885 -0.000000 -0.000004 -25.026904 -0.000003 -0.000000 -108.822706 -0.000000 
0.000000 -0.000000 0.402877 -0.000000 0.000000 -0.000000 -0.000000 0.000000 -0.000000 -0.000009 -35.208573 -0.000014 -0.000009 44.567637 0.000020 -0.000005 -15.037696 -0.000001 0.000001 9.815700 0.000003 -0.000077 78.384330 0.000092 -0.000004 -14.308035 -0.000002 0.000004 32.930043 -0.000001 -0.000000 -38.735885 -0.000000 -0.000004 -25.026904 -0.000003 -0.000000 -108.822706 -0.000000 
0.000000 -0.000000 0.404272 -0.000000 0.000000 -0.000000 -0.000000 0.000000 -0.000000 -0.000008 -34.288349 -0.000013 -0.000009 44.529108 0.000020 -0.000005 -15.467327 -0.000001 0.000000 7.090090 0.000002 -0.000121 82.394922 0.000136 -0.000004 -14.308034 -0.000002 0.000004 32.930043 -0.000001 -0.000000 -38.735885 -0.000000 -0.000004 -25.026904 -0.000003 -0.000000 -108.822706 -0.000000 
0.000000 -0.000000 0.408672 -0.000000 0.000000 -0.000000 -0.000000 0.000000 -0.000000 -0.000008 -32.531177 -0.000013 -0.000009 44.384683 0.000020 -0.000005 -16.761872 -0.000002 -0.000001 3.479266 0.000001 -0.000271 86.497400 0.000286 -0.000004 -14.308033 -0.000002 0.000004 32.930043 -0.000001 -0.000000 -38.735885 -0.000000 -0.000004 -25.026904 -0.000003 -0.000000 -108.822706 -0.000000 
0.000000 -0.000000 0.416292 -0.000000 0.000000 -0.000000 -0.000000 0.000000 -0.000000 -0.000006 -29.937259 -0.000012 -0.000009 44.083458 0.000019 -0.000005 -18.870962 -0.000002 -0.000002 -1.002368 -0.000000 0.001639 90.597337 -0.001624 -0.000004 -14.308034 -0.000002 0.000004 32.930043 -0.000001 -0.000000 -38.735885 -0.000000 -0.000004 -25.026904 -0.000003 -0.000000 -108.822706 -0.000000 
0.000000 -0.000000 0.427104 -0.000000 0.000000 -0.000000 -0.000000 0.000000 -0.000000 -0.000005 -26.595049 -0.000012 -0.000009 43.568858 0.000019 -0.000005 -21.635377 -0.000002 -0.000003 -6.232480 -0.000002 0.000222 94.549346 -0.000207 -0.000004 -14.308033 -0.000002 0.000004 32.930043 -0.000001 -0.000000 -38.735885 -0.000000 -0.000004 -25.026904 -0.000003 -0.000000 -108.822706 -0.000000 
0.000000 -0.000000 0.440729 -0.000000 0.000000 -0.000000 -0.000000 0.000000 -0.000000 -0.000003 -22.703670 -0.000011 -0.000009 42.789653 0.000019 -0.000005 -24.771249 -0.000002 -0.000005 -11.955671 -0.000005 0.000127 98.168752 -0.000112 -0.000004 -14.308035 -0.000002 0.000004 32.930043 -0.000001 -0.000000 -38.735885 -0.000000 -0.000004 -25.026904 -0.000003 -0.000000 -108.822706 -0.000000 
0.000000 -0.000000 0.456426 -0.000000 0.000000 -0.000000 -0.000000 0.000000 -0.000000 -0.000002 -18.553608 -0.000011 -0.000009 41.714001 0.000019 -0.000005 -27.907128 -0.000002 -0.000008 -17.812162 -0.000007 0.000095 101.267800 -0.000079 -0.000004 -14.308035 -0.000002 0.000004 32.930043 -0.000001 -0.000000 -38.735885 -0.000000 -0.000004 -25.026904 -0.000003 -0.000000 -108.822706 -0.000000 
0.000000 -0.000000 0.473247 -0.000000 0.000000 -0.000000 -0.000000 0.000000 -0.000000 -0.000000 -14.460315 -0.000011 -0.000008 40.338530 0.000018 -0.000005 -30.671545 -0.000002 -0.000010 -23.424612 -0.000010 0.000079 103.703473 -0.000064 -0.000004 -14.308036 -0.000002 0.000004 32.930043 -0.000001 -0.000000 -38.735885 -0.000000 -0.000004 -25.026904 -0.000003 -0.000000 -108.822706 -0.000000 
0.000000 -0.000000 0.490269 -0.000000 0.000000 -0.000000 -0.000000 0.000000 -0.000000 0.000001 -10.687276 -0.000010 -0.000008 38.686072 0.000018 -0.000006 -32.780629 -0.000002 -0.000013 -28.493456 -0.000013 0.000072 105.407912 -0.000056 -0.000004 -14.308036 -0.000002 0.000004 32.930043 -0.000001 -0.000000 -38.735885 -0.000000 -0.000004 -25.026904 -0.000003 -0.000000 -108.822706 -0.000000 
0.000000 -0.000000 0.506771 -0.000000 0.000000 -0.000000 -0.000000 0.000000 -0.000000 0.000002 -7.403954 -0.000010 -0.000007 36.794950 0.000018 -0.000006 -34.075172 -0.000003 -0.000015 -32.843784 -0.000016 0.000068 106.386794 -0.000052 -0.000004 -14.308034 -0.000002 0.000004 32.930043 -0.000001 -0.000000 -38.735885 -0.000000 -0.000004 -25.026904 -0.000003 -0.000000 -108.822706 -0.000000 
